<?xml version="1.0" encoding="UTF-8" standalone="no"?>
<!DOCTYPE svg PUBLIC "-//W3C//DTD SVG 1.1//EN" "http://www.w3.org/Graphics/SVG/1.1/DTD/svg11.dtd">
<svg width="100%" height="100%" viewBox="0 0 539 576" version="1.1" xmlns="http://www.w3.org/2000/svg" xmlns:xlink="http://www.w3.org/1999/xlink" xml:space="preserve" xmlns:serif="http://www.serif.com/" style="fill-rule:evenodd;clip-rule:evenodd;stroke-linejoin:round;stroke-miterlimit:2;">
    <g transform="matrix(1,0,0,1,-6.10805,-7.75652)">
        <g transform="matrix(0.0873551,0,0,0.0873551,-2107.33,-1638.91)">
            <g transform="matrix(0.823844,0.476143,-0.472305,0.817202,25681.1,20435.6)">
                <path d="M2124.56,1400.84C2171.39,1318.24 2258.55,1267.3 2352.93,1267.39C2447.3,1267.48 2534.37,1318.59 2581.03,1401.28C2905.04,1975.41 3495.16,3021.11 3816.57,3590.63C3862.81,3672.58 3862.36,3773.14 3815.38,3854.66C3768.4,3936.19 3681.98,3986.39 3588.45,3986.48C2941.8,3987.09 1758.29,3988.22 1110.54,3988.84C1016.84,3988.93 930.178,3938.7 883.11,3857.02C836.041,3775.34 835.685,3674.57 882.176,3592.56C1205.64,3021.93 1799.03,1975.11 2124.56,1400.84Z" style="fill:white;"/>
            </g>
            <g transform="matrix(5.82651e-17,-0.951541,0.94387,5.77954e-17,26596.8,24382.3)">
                <path d="M2124.56,1400.84C2171.39,1318.24 2258.55,1267.3 2352.93,1267.39C2447.3,1267.48 2534.37,1318.59 2581.03,1401.28C2905.04,1975.41 3495.16,3021.11 3816.57,3590.63C3862.81,3672.58 3862.36,3773.14 3815.38,3854.66C3768.4,3936.19 3681.98,3986.39 3588.45,3986.48C2941.8,3987.09 1758.29,3988.22 1110.54,3988.84C1016.84,3988.93 930.178,3938.7 883.11,3857.02C836.041,3775.34 835.685,3674.57 882.176,3592.56C1205.64,3021.93 1799.03,1975.11 2124.56,1400.84Z" style="fill:white;"/>
            </g>
            <g transform="matrix(-5.82651e-17,0.951541,-0.94387,-5.77954e-17,27958.6,19907.2)">
                <path d="M2124.56,1400.84C2171.39,1318.24 2258.55,1267.3 2352.93,1267.39C2447.3,1267.48 2534.37,1318.59 2581.03,1401.28C2905.04,1975.41 3495.16,3021.11 3816.57,3590.63C3862.81,3672.58 3862.36,3773.14 3815.38,3854.66C3768.4,3936.19 3681.98,3986.39 3588.45,3986.48C2941.8,3987.09 1758.29,3988.22 1110.54,3988.84C1016.84,3988.93 930.178,3938.7 883.11,3857.02C836.041,3775.34 835.685,3674.57 882.176,3592.56C1205.64,3021.93 1799.03,1975.11 2124.56,1400.84Z" style="fill:white;"/>
            </g>
            <g transform="matrix(0.823546,-0.476657,0.472815,0.816907,25000,22676.3)">
                <path d="M2124.56,1400.84C2171.39,1318.24 2258.55,1267.3 2352.93,1267.39C2447.3,1267.48 2534.37,1318.59 2581.03,1401.28C2905.04,1975.41 3495.16,3021.11 3816.57,3590.63C3862.81,3672.58 3862.36,3773.14 3815.38,3854.66C3768.4,3936.19 3681.98,3986.39 3588.45,3986.48C2941.8,3987.09 1758.29,3988.22 1110.54,3988.84C1016.84,3988.93 930.178,3938.7 883.11,3857.02C836.041,3775.34 835.685,3674.57 882.176,3592.56C1205.64,3021.93 1799.03,1975.11 2124.56,1400.84Z" style="fill:white;"/>
            </g>
            <g transform="matrix(-0.823546,0.476657,-0.472815,-0.816907,29555.4,21613.2)">
                <path d="M2124.56,1400.84C2171.39,1318.24 2258.55,1267.3 2352.93,1267.39C2447.3,1267.48 2534.37,1318.59 2581.03,1401.28C2905.04,1975.41 3495.16,3021.11 3816.57,3590.63C3862.81,3672.58 3862.36,3773.14 3815.38,3854.66C3768.4,3936.19 3681.98,3986.39 3588.45,3986.48C2941.8,3987.09 1758.29,3988.22 1110.54,3988.84C1016.84,3988.93 930.178,3938.7 883.11,3857.02C836.041,3775.34 835.685,3674.57 882.176,3592.56C1205.64,3021.93 1799.03,1975.11 2124.56,1400.84Z" style="fill:white;"/>
            </g>
            <g transform="matrix(-0.823844,-0.476143,0.472305,-0.817202,28874.3,23853.9)">
                <path d="M2124.56,1400.84C2171.39,1318.24 2258.55,1267.3 2352.93,1267.39C2447.3,1267.48 2534.37,1318.59 2581.03,1401.28C2905.04,1975.41 3495.16,3021.11 3816.57,3590.63C3862.81,3672.58 3862.36,3773.14 3815.38,3854.66C3768.4,3936.19 3681.98,3986.39 3588.45,3986.48C2941.8,3987.09 1758.29,3988.22 1110.54,3988.84C1016.84,3988.93 930.178,3938.7 883.11,3857.02C836.041,3775.34 835.685,3674.57 882.176,3592.56C1205.64,3021.93 1799.03,1975.11 2124.56,1400.84Z" style="fill:white;"/>
            </g>
        </g>
    </g>
</svg>
